# xmcd CD database file
#
# Track frame offsets:
#	150
#	28451
#	53335
#	79534
#	100876
#	128895
#	143055
#	168266
#	195730
#	213344
#
# Disc length: 3163 seconds
#
# Revision: 0
# Processed by: cddbd v1.5.1PL0 Copyright (c) Steve Scherf et al.
# Submitted via: CDex 1.50beta10
#
DISCID=820c590a
DTITLE=Various Artist - Pacific Moon ды2
DYEAR=1999
DGENRE=New Age
TTITLE0=Wintry Wind
TTITLE1=Niigata-Okesa
TTITLE2=Tsugaru
TTITLE3=Can't Let You Go
TTITLE4=Sun Stone
TTITLE5=Fudosan
TTITLE6=Sayona
TTITLE7=Himalayan Palmist
TTITLE8=Mendicant Priest
TTITLE9=Darma
EXTD=YEAR: 1999
EXTT0=
EXTT1=
EXTT2=
EXTT3=
EXTT4=
EXTT5=
EXTT6=
EXTT7=
EXTT8=
EXTT9=
PLAYORDER=
